<svg width="414" height="896" viewBox="0 0 414 896" fill="none" xmlns="http://www.w3.org/2000/svg">
<rect width="414" height="896" fill="white"/>
<path fill-rule="evenodd" clip-rule="evenodd" d="M26.3516 270.639C56.1659 262.436 89.9163 280.989 110.541 318.798C130.473 355.337 118.513 416.231 130.608 461.759C142.682 507.211 185.558 532.208 180.283 581.326C174.932 631.158 131.248 632.95 108.706 665.722C90.8283 691.712 83.3254 735.371 62.2422 752.935C39.4645 771.91 12.2382 779.792 -11.795 766.106C-35.5663 752.568 -55.5593 719.374 -65.674 680.088C-74.8605 644.407 -57.1625 603.004 -63.4397 565.516C-71.3927 518.02 -110.975 488.481 -105.903 439.838C-101.191 394.638 -63.5613 388.254 -42.096 360.792C-18.5602 330.682 -2.64427 278.616 26.3516 270.639Z" fill="url(#paint0_linear)"/>
<path fill-rule="evenodd" clip-rule="evenodd" d="M-48.6953 252.954C-28.0664 232.217 3.60827 232.368 30.8785 254.926C57.2322 276.726 66.1773 333.932 89.151 366.981C112.086 399.976 152.752 401.38 163.353 445.502C174.108 490.266 140.824 511.97 133.17 550.198C127.1 580.516 134.343 621.034 123.272 645.681C111.311 672.309 92.5903 691.579 69.8931 691.068C47.4433 690.562 22.0419 671.628 2.4671 642.961C-15.3115 616.925 -13.988 573.61 -30.0546 544.695C-50.4103 508.062 -89.8837 501.281 -100.5 457.656C-110.364 417.119 -83.1412 394.314 -74.7332 361.091C-65.5142 324.662 -68.7579 273.122 -48.6953 252.954Z" fill="url(#paint1_linear)"/>
<path fill-rule="evenodd" clip-rule="evenodd" d="M230.272 158.929C221.076 130.451 237.584 101.432 245.669 72.5174C255.16 38.5776 250.865 -6.21705 281.511 -24.3072C312.199 -42.423 351.308 -21.7241 384.677 -9.53948C410.325 -0.173897 426.009 22.8299 449.287 36.9574C479.069 55.0316 531.317 50.8921 539.591 84.4761C547.85 117.999 501.918 139.935 481.625 168.216C466.941 188.679 458.201 212.926 437.249 227.102C415.566 241.772 389.589 249.811 363.447 248.174C337.11 246.525 314.442 232.641 292.664 218.047C268.21 201.66 239.26 186.762 230.272 158.929Z" fill="url(#paint2_linear)"/>
<path fill-rule="evenodd" clip-rule="evenodd" d="M620.199 39.2491C636.079 83.5464 544.269 89.6406 520.221 129.128C503.485 156.609 535.885 210.171 507.564 224.199C476.573 239.548 448.546 183.111 413.995 181.741C384.826 180.585 364.571 223.911 335.986 217.397C308.629 211.164 304.083 170.837 282.746 151.835C243.889 117.23 172.95 112.235 160.359 60.9921C149.041 14.9316 188.888 -39.9658 231.729 -55.787C277.694 -72.7617 326.893 3.46586 371.481 -16.9745C422.37 -40.3033 404.536 -174.5 458.924 -159.94C513.921 -145.216 441.425 -33.7046 478.075 11.5619C509.85 50.8073 603.029 -8.64715 620.199 39.2491Z" fill="url(#paint3_linear)"/>
<path fill-rule="evenodd" clip-rule="evenodd" d="M394.62 -212.739C418.709 -209.765 432.398 -181.226 449.547 -161.033C469.676 -137.331 503.301 -122.629 503.295 -84.7742C503.289 -46.8661 472.176 -17.0662 449.52 10.6744C432.105 31.9969 409.183 37.7323 389.38 54.7061C364.045 76.4218 345.064 129.673 317.735 123.632C290.454 117.602 294.142 63.0535 282.565 31.0954C274.188 7.97137 260.63 -10.8937 259.35 -37.5387C258.025 -65.1129 263.213 -94.117 275.345 -119.193C287.566 -144.456 306.94 -160.931 326.444 -176.229C348.346 -193.406 371.076 -215.645 394.62 -212.739Z" fill="url(#paint4_linear)"/>
<defs>
<linearGradient id="paint0_linear" x1="143.516" y1="258.762" x2="-235.126" y2="774.096" gradientUnits="userSpaceOnUse">
<stop offset="0.00244321" stop-color="#56CD70"/>
<stop offset="1" stop-color="#548EFF" stop-opacity="0.51"/>
</linearGradient>
<linearGradient id="paint1_linear" x1="38.4586" y1="188.739" x2="-62.0722" y2="807.301" gradientUnits="userSpaceOnUse">
<stop offset="0.00244321" stop-color="#56CD70"/>
<stop offset="1" stop-color="#548EFF" stop-opacity="0.51"/>
</linearGradient>
<linearGradient id="paint2_linear" x1="329.94" y1="43.3907" x2="336.898" y2="292.135" gradientUnits="userSpaceOnUse">
<stop stop-color="#FE9A04"/>
<stop offset="0.927203" stop-color="#F4D47F" stop-opacity="0.89"/>
</linearGradient>
<linearGradient id="paint3_linear" x1="457.596" y1="126.914" x2="454.363" y2="-207.283" gradientUnits="userSpaceOnUse">
<stop stop-color="#FE9A04"/>
<stop offset="0.927203" stop-color="#F4D47F" stop-opacity="0.89"/>
</linearGradient>
<linearGradient id="paint4_linear" x1="434.883" y1="-65.6544" x2="246.167" y2="-141.268" gradientUnits="userSpaceOnUse">
<stop stop-color="#FE9A04"/>
<stop offset="0.927203" stop-color="#F4D47F" stop-opacity="0.89"/>
</linearGradient>
</defs>
</svg>
