<svg width="414" height="896" viewBox="0 0 414 896" fill="none" xmlns="http://www.w3.org/2000/svg">
<rect width="414" height="896" fill="white"/>
<path fill-rule="evenodd" clip-rule="evenodd" d="M31.2982 317.517C54.2499 312.312 80.2315 324.085 96.109 348.078C111.453 371.264 102.246 409.906 111.556 438.797C120.852 467.639 153.858 483.502 149.798 514.671C145.678 546.293 112.049 547.43 94.6962 568.226C80.9335 584.719 75.1577 612.424 58.9275 623.569C41.3928 635.611 20.4335 640.613 1.93231 631.928C-16.3673 623.337 -31.7582 602.273 -39.5447 577.343C-46.6166 554.701 -32.9924 528.427 -37.8247 504.638C-43.9471 474.499 -74.4178 455.754 -70.5138 424.886C-66.8861 396.204 -37.9183 392.153 -21.3939 374.726C-3.27566 355.619 8.97671 322.579 31.2982 317.517Z" fill="url(#paint0_linear)"/>
<path fill-rule="evenodd" clip-rule="evenodd" d="M-26.4742 306.295C-10.5937 293.136 13.79 293.232 34.7831 307.546C55.0707 321.38 61.9568 357.681 79.6424 378.654C97.2984 399.591 128.604 400.482 136.764 428.481C145.043 456.887 119.421 470.66 113.529 494.918C108.856 514.157 114.432 539.869 105.91 555.509C96.7018 572.407 82.29 584.635 64.8173 584.31C47.535 583.99 27.9806 571.975 12.9115 553.783C-0.77477 537.261 0.244133 509.774 -12.1242 491.426C-27.7945 468.179 -58.1818 463.877 -66.354 436.193C-73.9479 410.469 -52.9913 395.998 -46.5187 374.915C-39.4217 351.799 -41.9187 319.093 -26.4742 306.295Z" fill="url(#paint1_linear)"/>
<path fill-rule="evenodd" clip-rule="evenodd" d="M230.272 158.929C221.076 130.451 237.584 101.432 245.669 72.5174C255.16 38.5776 250.865 -6.21705 281.511 -24.3072C312.199 -42.423 351.308 -21.7241 384.677 -9.53948C410.325 -0.173897 426.009 22.8299 449.287 36.9574C479.069 55.0316 531.317 50.8921 539.591 84.4761C547.85 117.999 501.918 139.935 481.625 168.216C466.941 188.679 458.201 212.926 437.249 227.102C415.566 241.772 389.589 249.811 363.447 248.174C337.11 246.525 314.442 232.641 292.664 218.047C268.21 201.66 239.26 186.762 230.272 158.929Z" fill="url(#paint2_linear)"/>
<path fill-rule="evenodd" clip-rule="evenodd" d="M620.199 39.2491C636.079 83.5464 544.269 89.6406 520.221 129.128C503.485 156.609 535.885 210.171 507.564 224.199C476.573 239.548 448.546 183.111 413.995 181.741C384.826 180.585 364.571 223.911 335.986 217.397C308.629 211.164 304.083 170.837 282.746 151.835C243.889 117.23 172.95 112.235 160.359 60.9921C149.041 14.9316 188.888 -39.9658 231.729 -55.787C277.694 -72.7617 326.893 3.46586 371.481 -16.9745C422.37 -40.3033 404.536 -174.5 458.924 -159.94C513.921 -145.216 441.425 -33.7046 478.075 11.5619C509.85 50.8073 603.029 -8.64715 620.199 39.2491Z" fill="url(#paint3_linear)"/>
<path fill-rule="evenodd" clip-rule="evenodd" d="M394.62 -212.739C418.709 -209.765 432.398 -181.226 449.547 -161.033C469.676 -137.331 503.301 -122.629 503.295 -84.7742C503.289 -46.8661 472.176 -17.0662 449.52 10.6744C432.105 31.9969 409.183 37.7323 389.38 54.7061C364.045 76.4218 345.064 129.673 317.735 123.632C290.454 117.602 294.142 63.0535 282.565 31.0954C274.188 7.97137 260.63 -10.8937 259.35 -37.5387C258.025 -65.1129 263.213 -94.117 275.345 -119.193C287.566 -144.456 306.94 -160.931 326.444 -176.229C348.346 -193.406 371.076 -215.645 394.62 -212.739Z" fill="url(#paint4_linear)"/>
<defs>
<linearGradient id="paint0_linear" x1="121.494" y1="309.98" x2="-101.643" y2="678.395" gradientUnits="userSpaceOnUse">
<stop offset="0.00244321" stop-color="#56CD70"/>
<stop offset="1" stop-color="#548EFF" stop-opacity="0.51"/>
</linearGradient>
<linearGradient id="paint1_linear" x1="40.6184" y1="265.546" x2="-12.4056" y2="661.334" gradientUnits="userSpaceOnUse">
<stop offset="0.00244321" stop-color="#56CD70"/>
<stop offset="1" stop-color="#548EFF" stop-opacity="0.51"/>
</linearGradient>
<linearGradient id="paint2_linear" x1="329.94" y1="43.3907" x2="336.898" y2="292.135" gradientUnits="userSpaceOnUse">
<stop stop-color="#FE9A04"/>
<stop offset="0.927203" stop-color="#F4D47F" stop-opacity="0.89"/>
</linearGradient>
<linearGradient id="paint3_linear" x1="457.596" y1="126.914" x2="454.363" y2="-207.283" gradientUnits="userSpaceOnUse">
<stop stop-color="#FE9A04"/>
<stop offset="0.927203" stop-color="#F4D47F" stop-opacity="0.89"/>
</linearGradient>
<linearGradient id="paint4_linear" x1="434.883" y1="-65.6544" x2="246.167" y2="-141.268" gradientUnits="userSpaceOnUse">
<stop stop-color="#FE9A04"/>
<stop offset="0.927203" stop-color="#F4D47F" stop-opacity="0.89"/>
</linearGradient>
</defs>
</svg>
